{"title":"Back.In.Time.2015.WEBRip.480p.x264.AAC-VYTO [P2PDL]","uid":13108000,"size":376981115,"categoryP":"video","categoryS":"movies","magnet":"?xt=urn:btih:c52310482a2d883457b083a6855610e79838ce38&amp;dn=Back.In.Time.2015.WEBRip.480p.x264.AAC-VYTO+%5BP2PDL%5D&amp;tr=udp%3A%2F%2Ftracker.leechers-paradise.org%3A6969&amp;tr=udp%3A%2F%2Fzer0day.ch%3A1337&amp;tr=udp%3A%2F%2Fopen.demonii.com%3A1337&amp;tr=udp%3A%2F%2Ftracker.coppersurfer.tk%3A6969&amp;tr=udp%3A%2F%2Fexodus.desync.com%3A6969","seeders":1,"leechers":0,"uploader":"VYTOP2PDL","files":7,"time":1451385510,"description":"____    ____ ____    ____ .___________.  ______   \r\n     /   /      /   / |           | /  __    \r\n    /   /      /   /  `---|  |----`|  |  |  | \r\n        /     _    _/       |  |     |  |  |  | \r\n       /        |  |         |  |     |  `--'  | \r\n    __/         |__|         |__|      ______/  \r\n                                                  \r\nPresenting Small Encodes with quality for years!\r\n                                                                                                   \r\n                                                                                                   \r\n\r\nBack.In.Time.2015.WEBRip.480p.x264.AAC-VYTO\r\n\r\n\r\nGenre: Documentary, Family, History \nhttp://www.imdb.com/title/tt3118874/\r\n\r\n\r\nFormat                                   : MPEG-4\r\nFile size                                : 351 MiB\r\nDuration                                 : 1h 34mn\r\nOverall bit rate                         : 521 Kbps\r\n\r\nVideo\r\nFormat                                   : AVC\r\nBit rate                                 : 486 Kbps\r\nWidth                                    : 720 pixels\r\nHeight                                   : 400 pixels\r\nDisplay aspect ratio                     : 16:9\r\nFrame rate mode                          : Constant\r\nFrame rate                               : 25.000 fps\r\nColor space                              : YUV\r\nChroma subsampling                       : 4:2:0\r\nBit depth                                : 8 bits\r\nStream size                              : 327 MiB (93%)\r\nWriting library                          : x264\r\n\r\nAudio\r\nFormat                                   : AAC\r\nBit rate mode                            : Variable\r\nBit rate                                 : 32.0 Kbps\r\nChannel(s)                               : 2 channels \r\nChannel positions                        : Front: L R\r\nSampling rate                            : 48.0 KHz\r\nStream size                              : 21.6 MiB (6%)\r\nLanguage                                 : English\r\n\r\nSubtitle                                 : Yes (English)\r\n\r\nScreen Shots: (Click to view)\r\n \nhttp://ititli.com/Ef \nhttp://ititli.com/Eu \nhttp://ititli.com/Ev \nhttp://ititli.com/ER \nhttp://ititli.com/Ey \nhttp://ititli.com/E3 \nhttp://ititli.com/EE \nhttp://ititli.com/EQ \nhttp://ititli.com/ES \nhttp://ititli.com/EZ \nhttp://ititli.com/Ec \nhttp://ititli.com/Ei\r\n\r\n----------------------------------------------------------------------------------------------------\r\n\r\n\r\nEncoder Notes: Looking For Early Access To Anything You Can Provide WEBDL, DVDScr, DVDR, BluRay,\r\nDirect Audio, Music Releases and Seedboxes. If You Got anything to offer please contact us.\r\n\r\nSupport us by donating BC - 1FgwdzPsd1y25Gea8wP1qni35uGCtmkRCD\r\n\r\nSend some love!\r\nFind us and join us!","torrent":{"xt":"urn:btih:c52310482a2d883457b083a6855610e79838ce38","amp;dn":"Back.In.Time.2015.WEBRip.480p.x264.AAC-VYTO+%5BP2PDL%5D","amp;tr":["udp%3A%2F%2Ftracker.leechers-paradise.org%3A6969","udp%3A%2F%2Fzer0day.ch%3A1337","udp%3A%2F%2Fopen.demonii.com%3A1337","udp%3A%2F%2Ftracker.coppersurfer.tk%3A6969","udp%3A%2F%2Fexodus.desync.com%3A6969"],"infoHash":"c52310482a2d883457b083a6855610e79838ce38","infoHashBuffer":{"type":"Buffer","data":[197,35,16,72,42,45,136,52,87,176,131,166,133,86,16,231,152,56,206,56]},"announce":[],"urlList":[]}}